<?xml version="1.0" encoding="UTF-8" standalone="no"?>
<!-- Created with Inkscape (http://www.inkscape.org/) -->

<svg
   width="1023.9999"
   height="1023.9999"
   viewBox="0 0 270.93331 270.93331"
   version="1.1"
   id="svg1"
   xml:space="preserve"
   xmlns="http://www.w3.org/2000/svg"
   xmlns:svg="http://www.w3.org/2000/svg"><defs
     id="defs1" /><g
     id="layer2"
     style="display:inline"><g
       id="layer4"><path
         id="path149"
         style="display:inline;fill:none;stroke:#ce0000;stroke-width:0.836065;stroke-dasharray:none;stroke-opacity:1"
         d="m 135.4622,206.70376 11.2073,-3.33198 4.48285,1.17762 13.44878,-0.19581 -15.69026,12.46695 H 135.4622" /><path
         id="path18"
         style="display:inline;fill:none;stroke:#ce0000;stroke-width:0.836065;stroke-dasharray:none;stroke-opacity:1"
         d="m 135.4622,206.70376 -11.2073,-3.33198 -4.48285,1.17762 -13.44878,-0.19581 15.69026,12.46695 h 13.44867" /><path
         style="display:inline;fill:none;stroke:#ce0000;stroke-width:0.836065;stroke-dasharray:none;stroke-opacity:1"
         d="m 135.46667,199.41363 6.57405,-2.68975 22.70801,7.54448 -14.19046,0.0765 -4.03463,-1.34487 -11.05697,4.03463"
         id="path145" /><path
         style="display:inline;fill:none;stroke:#ce0000;stroke-width:0.836065;stroke-dasharray:none;stroke-opacity:1"
         d="m 135.46667,199.41363 -6.57405,-2.68975 -22.70801,7.54448 14.19046,0.0765 4.03463,-1.34487 11.05697,4.03463"
         id="path39" /></g><g
       id="layer10"><path
         id="path40"
         style="fill:none;stroke:#ce0000;stroke-width:0.836065;stroke-dasharray:none;stroke-opacity:1"
         d="m 120.67543,253.53594 -3.91014,-12.28992 7.63549,-10.58167 11.06589,-3.37174 11.06589,3.37174 7.63549,10.58167 -3.91014,12.28992" /></g><g
       id="layer9"><path
         style="fill:none;stroke:#ce0000;stroke-width:0.836065;stroke-dasharray:none;stroke-opacity:1"
         d="m 177.27351,188.43611 44.43081,-62.61886 -12.21197,37.67527 -24.42398,34.0376 z"
         id="path144" /><path
         style="fill:none;stroke:#ce0000;stroke-width:0.836065;stroke-dasharray:none;stroke-opacity:1"
         d="m 93.659825,188.43611 -44.430809,-62.61886 12.211969,37.67527 24.423983,34.0376 z"
         id="path49" /></g><g
       id="layer7"><path
         style="fill:none;stroke:#ce0000;stroke-width:0.836065;stroke-dasharray:none;stroke-opacity:1"
         d="m 154.15261,103.88932 41.23665,-13.607637 19.2827,14.465837 -19.20125,-6.724368 -36.83527,12.221818 z"
         id="path135" /><path
         style="fill:none;stroke:#ce0000;stroke-width:0.836065;stroke-dasharray:none;stroke-opacity:1"
         d="M 116.78072,103.88932 75.544074,90.281683 56.261374,104.74752 75.46262,98.023152 112.29789,110.24497 Z"
         id="path47" /></g><g
       id="layer8"><path
         id="path138"
         style="fill:none;stroke:#ce0000;stroke-width:0.836065;stroke-dasharray:none;stroke-opacity:1"
         d="m 177.1535,128.58648 18.95993,-6.72438 -3.26975,-4.48292 -4.48292,-5.68506 -11.20726,-3.28078 -17.93169,13.44876 z" /><path
         id="path48"
         style="fill:none;stroke:#ce0000;stroke-width:0.836065;stroke-dasharray:none;stroke-opacity:1"
         d="m 78.089656,117.37918 -3.269753,4.48292 18.959929,6.72438 17.931688,-6.72438 -17.931688,-13.44876 -11.207255,3.28078 z" /><path
         style="fill:none;stroke:#ce0000;stroke-width:0.836065"
         d="m 170.09473,115.99001 c -1e-5,4.07003 3.29941,7.36945 7.36944,7.36947 4.07005,10e-6 7.36947,-3.29942 7.36947,-7.36947 0,-4.07005 -3.29942,-7.36948 -7.36947,-7.36947 -4.07003,2e-5 -7.36945,3.29944 -7.36944,7.36947 z"
         id="path141" /><path
         style="fill:none;stroke:#ce0000;stroke-width:0.836065"
         d="m 100.8386,115.99001 c 1e-5,4.07003 -3.299402,7.36945 -7.369434,7.36947 -4.070049,10e-6 -7.369476,-3.29942 -7.369472,-7.36947 -4e-6,-4.07005 3.299423,-7.36948 7.369472,-7.36947 4.070032,2e-5 7.369444,3.29944 7.369434,7.36947 z"
         id="circle48" /></g><g
       id="layer6"
       style="display:inline"><path
         style="fill:none;stroke:#ce0000;stroke-width:0.836065;stroke-dasharray:none;stroke-opacity:1"
         d="m 135.46667,174.42023 -11.96149,-3.77377 m 11.96148,3.77377 11.96149,-3.77377"
         id="path43" /><path
         style="fill:none;stroke:#ce0000;stroke-width:0.836065;stroke-dasharray:none;stroke-opacity:1"
         d="m 147.42814,170.64645 -5.04611,-13.71931 -0.38741,-37.19443 6.07899,-7.9217 6.079,-7.92169"
         id="path140" /><path
         style="fill:none;stroke:#ce0000;stroke-width:0.836065;stroke-dasharray:none;stroke-opacity:1"
         d="m 123.50519,170.64645 5.04611,-13.71931 0.38741,-37.19443 -6.07899,-7.9217 -6.079,-7.92169"
         id="path44" /><path
         style="fill:none;stroke:#ce0000;stroke-width:0.836065;stroke-dasharray:none;stroke-opacity:1"
         d="m 147.42815,170.64646 -0.59049,-44.52096 11.79779,-15.88052"
         id="path142" /><path
         style="fill:none;stroke:#ce0000;stroke-width:0.836065;stroke-dasharray:none;stroke-opacity:1"
         d="m 123.50518,170.64646 0.59049,-44.52096 -11.79779,-15.88052"
         id="path45" /><path
         style="fill:none;stroke:#ce0000;stroke-width:0.836065;stroke-dasharray:none;stroke-opacity:1"
         d="m 135.46666,181.81404 13.75923,-9.25476 -1.71382,5.14155 6.85537,-1.88525 0.51415,-8.05509 -7.36952,-20.73754"
         id="path143" /><path
         style="fill:none;stroke:#ce0000;stroke-width:0.836065;stroke-dasharray:none;stroke-opacity:1"
         d="m 135.46667,181.81404 -13.75923,-9.25476 1.71382,5.14155 -6.85537,-1.88525 -0.51415,-8.05509 7.36952,-20.73754"
         id="path46" /></g><g
       id="g41"
       transform="matrix(-0.44829207,0,0,0.44829207,-2439.8957,124.66393)"><path
         id="path173"
         style="fill:none;stroke:#ce0000;stroke-width:1.865;stroke-dasharray:none;stroke-opacity:1"
         d="m -5788.2008,287.57262 -65,-48.9999 -44,-62 -24,-79.000007 V 52.572714 l -16,-49.9999933 16,-49.9999997 V -161.42727 l 100,-73.00001 h 76.3694 76.3694 l 100,73.00001 v 113.999991 l 16,49.9999997 -16,49.9999933 v 44.999999 l -24,79.000007 -44,62 -65,48.9999 -43.3694,-0.47 z" /></g></g></svg>
